<svg width="2299" height="1977" viewBox="0 0 2299 1977" fill="none" xmlns="http://www.w3.org/2000/svg">
<path d="M1835 19.9999C1885.1 559.649 1861.34 1120.84 1544.14 1478.24C1374.78 1669.08 1085.51 1705.56 962.022 1355.32C877.916 1116.77 847.525 708.194 1055.9 605.966C1286.01 493.074 1100.63 1149.42 1069.36 1213.1C922.997 1511.17 732.057 1689.9 486.029 1855.36C393.869 1917.34 460.839 1933.96 534.187 1925.93C597.828 1918.96 669.796 1908.94 726.959 1881.24C744.395 1872.8 621.554 1896.3 602.477 1901.19C520.674 1922.15 425.036 1942.28 408.019 1801.73C405.286 1779.14 394.702 1569.32 419.893 1564.44C433.001 1561.9 502.591 1697.43 515.306 1714.04C597.889 1821.93 663.466 1859.3 771.554 1854.23" stroke="#94A3B8" stroke-width="40" stroke-linecap="round"/>
</svg>
