<svg width="1790" height="876" viewBox="0 0 1790 876" fill="none" xmlns="http://www.w3.org/2000/svg">
<path opacity="0.0144928" d="M1787.41 671.685L1748.21 69.4549C1745 20.1339 1693.64 -10.8991 1648.49 9.2039L1266.36 179.336C1221.21 199.439 1209.9 258.376 1244.41 293.764L1665.72 725.855C1711.76 773.075 1791.69 737.485 1787.41 671.685Z" stroke="url(#paint0_linear_912_72)" stroke-opacity="0.2" stroke-width="4"/>
<path opacity="0.0289855" d="M1747.77 684.505L1740.89 88.148C1740.31 38.693 1690.62 4.95905 1644.45 22.6841L1257.4 171.255C1211.23 188.979 1196.87 247.301 1229.54 284.435L1623.47 732.225C1666.97 781.685 1748.53 750.375 1747.77 684.505Z" stroke="url(#paint1_linear_912_72)" stroke-opacity="0.2" stroke-width="4"/>
<path opacity="0.0434783" d="M1708.01 696.285L1732.71 107.493C1734.78 58.045 1686.9 21.699 1639.83 36.993L1249.08 163.958C1202.01 179.252 1184.63 236.801 1215.37 275.586L1581.44 737.415C1622.3 788.975 1705.26 762.015 1708.01 696.285Z" stroke="url(#paint2_linear_912_72)" stroke-opacity="0.2" stroke-width="4"/>
<path opacity="0.057971" d="M1668.2 707.015L1723.66 127.437C1728.38 78.1368 1682.44 39.2748 1634.61 52.0928L1241.33 157.472C1193.49 170.29 1173.14 226.912 1201.88 267.248L1539.7 741.445C1577.83 794.965 1661.94 772.425 1668.2 707.015Z" stroke="url(#paint3_linear_912_72)" stroke-opacity="0.2" stroke-width="4"/>
<path opacity="0.0724638" d="M1628.38 716.705L1713.71 147.925C1721.06 98.9129 1677.21 57.6389 1628.73 67.9429L1234.12 151.821C1185.64 162.125 1162.37 217.667 1189.02 259.451L1498.31 744.355C1533.6 799.685 1618.65 781.605 1628.38 716.705Z" stroke="url(#paint4_linear_912_72)" stroke-opacity="0.2" stroke-width="4"/>
<path opacity="0.0869565" d="M1588.62 725.365L1702.83 168.9C1712.8 120.317 1671.15 76.7408 1622.17 84.4998L1227.39 147.027C1178.4 154.786 1152.26 209.098 1176.76 252.221L1457.33 746.165C1489.71 803.165 1575.44 789.585 1588.62 725.365Z" stroke="url(#paint5_linear_912_72)" stroke-opacity="0.2" stroke-width="4"/>
<path opacity="0.101449" d="M1548.96 733.025L1691 190.305C1703.57 142.292 1664.25 96.5298 1614.89 101.718L1221.09 143.109C1171.73 148.297 1142.79 201.232 1165.06 245.584L1416.83 746.915C1446.21 805.425 1532.39 796.365 1548.96 733.025Z" stroke="url(#paint6_linear_912_72)" stroke-opacity="0.2" stroke-width="4"/>
<path opacity="0.115942" d="M1509.47 739.695L1678.21 212.082C1693.34 164.776 1656.47 116.953 1606.87 119.552L1215.17 140.08C1165.57 142.68 1133.9 194.095 1153.89 239.561L1376.85 746.645C1403.17 806.505 1489.55 801.975 1509.47 739.695Z" stroke="url(#paint7_linear_912_72)" stroke-opacity="0.2" stroke-width="4"/>
<path opacity="0.130435" d="M1470.19 745.395L1664.44 234.173C1682.09 187.71 1647.77 137.955 1598.07 137.955H1209.57C1159.87 137.955 1125.55 187.71 1143.2 234.173L1337.45 745.395C1360.64 806.445 1447 806.445 1470.19 745.395Z" stroke="url(#paint8_linear_912_72)" stroke-opacity="0.2" stroke-width="4"/>
<path opacity="0.144928" d="M1431.17 750.155L1649.68 256.519C1669.81 211.034 1638.15 159.481 1588.47 156.877L1204.25 136.741C1154.58 134.138 1117.69 182.099 1132.96 229.439L1298.68 743.215C1318.69 805.275 1404.78 809.785 1431.17 750.155Z" stroke="url(#paint9_linear_912_72)" stroke-opacity="0.2" stroke-width="4"/>
<path opacity="0.15942" d="M1392.46 754.005L1633.93 279.06C1656.49 234.686 1627.57 181.475 1578.06 176.271L1199.15 136.446C1149.64 131.243 1110.29 177.278 1123.13 225.373L1260.58 740.135C1277.38 803.055 1362.95 812.055 1392.46 754.005Z" stroke="url(#paint10_linear_912_72)" stroke-opacity="0.2" stroke-width="4"/>
<path opacity="0.173913" d="M1354.11 756.955L1617.18 301.737C1642.11 258.602 1616.02 203.879 1566.81 196.085L1194.22 137.072C1145.01 129.279 1103.29 173.262 1113.67 221.988L1223.19 736.215C1236.74 799.825 1321.57 813.265 1354.11 756.955Z" stroke="url(#paint11_linear_912_72)" stroke-opacity="0.2" stroke-width="4"/>
<path opacity="0.188406" d="M1316.15 759.055L1599.43 324.491C1626.66 282.723 1603.48 226.636 1554.71 216.27L1189.4 138.62C1140.63 128.254 1096.65 170.066 1104.53 219.297L1186.57 731.505C1196.84 795.635 1280.69 813.455 1316.15 759.055Z" stroke="url(#paint12_linear_912_72)" stroke-opacity="0.2" stroke-width="4"/>
<path opacity="0.202899" d="M1278.64 760.325L1580.69 347.263C1610.14 306.984 1589.95 249.689 1541.75 236.774L1184.65 141.087C1136.45 128.172 1090.32 167.697 1095.68 217.307L1150.74 726.055C1157.71 790.525 1240.36 812.675 1278.64 760.325Z" stroke="url(#paint13_linear_912_72)" stroke-opacity="0.2" stroke-width="4"/>
<path opacity="0.217391" d="M1241.6 760.815L1560.96 369.997C1592.56 331.326 1575.42 272.978 1527.92 257.546L1179.91 144.469C1132.41 129.036 1084.25 166.164 1087.08 216.024L1115.73 719.915C1119.41 784.565 1200.62 810.955 1241.6 760.815Z" stroke="url(#paint14_linear_912_72)" stroke-opacity="0.2" stroke-width="4"/>
<path opacity="0.231884" d="M1205.07 760.545L1540.26 392.634C1573.92 355.685 1559.88 296.447 1513.22 278.534L1175.13 148.755C1128.46 130.842 1078.39 165.471 1078.68 215.453L1081.59 713.145C1081.97 777.805 1161.53 808.345 1205.07 760.545Z" stroke="url(#paint15_linear_912_72)" stroke-opacity="0.2" stroke-width="4"/>
<path opacity="0.246377" d="M1169.1 759.575L1518.59 415.119C1554.22 380.003 1543.33 320.037 1497.63 299.689L1170.26 153.935C1124.56 133.587 1072.71 165.62 1070.45 215.596L1048.33 705.805C1045.42 770.295 1123.12 804.885 1169.1 759.575Z" stroke="url(#paint16_linear_912_72)" stroke-opacity="0.2" stroke-width="4"/>
<path opacity="0.26087" d="M1133.7 757.925L1495.98 437.396C1533.48 404.218 1525.78 343.69 1481.16 320.959L1165.26 159.995C1120.64 137.264 1067.15 166.611 1062.35 216.451L1015.98 697.945C1009.8 762.105 1085.43 800.635 1133.7 757.925Z" stroke="url(#paint17_linear_912_72)" stroke-opacity="0.2" stroke-width="4"/>
<path opacity="0.275362" d="M1098.91 755.635L1472.44 459.411C1511.71 428.271 1507.22 367.35 1463.82 342.293L1160.07 166.92C1116.67 141.862 1061.67 168.44 1054.33 218.016L984.561 689.615C975.141 753.275 1048.49 795.625 1098.91 755.635Z" stroke="url(#paint18_linear_912_72)" stroke-opacity="0.2" stroke-width="4"/>
<path opacity="0.289855" d="M1064.75 752.765L1448 481.112C1488.92 452.106 1487.68 390.962 1445.61 363.642L1154.65 174.688C1112.58 147.369 1056.22 171.103 1046.36 220.286L954.081 680.895C941.451 743.895 1012.33 789.925 1064.75 752.765Z" stroke="url(#paint19_linear_912_72)" stroke-opacity="0.2" stroke-width="4"/>
<path opacity="0.304348" d="M1031.25 749.345L1422.68 502.451C1465.15 475.666 1467.16 414.469 1426.54 384.958L1148.95 183.281C1108.34 153.77 1050.75 174.59 1038.4 223.255L924.551 671.825C908.772 734.005 976.991 783.565 1031.25 749.345Z" stroke="url(#paint20_linear_912_72)" stroke-opacity="0.2" stroke-width="4"/>
<path opacity="0.318841" d="M998.421 745.425L1396.52 523.376C1440.41 498.896 1445.67 437.818 1406.61 406.192L1142.94 192.673C1103.88 161.047 1045.24 178.893 1030.42 226.913L895.991 662.479C877.107 723.665 942.491 776.615 998.421 745.425Z" stroke="url(#paint21_linear_912_72)" stroke-opacity="0.2" stroke-width="4"/>
<path opacity="0.333333" d="M966.281 741.045L1369.54 543.842C1414.73 521.744 1423.24 460.957 1385.85 427.297L1136.57 202.84C1099.19 169.18 1039.62 183.998 1022.37 231.25L868.401 652.906C846.475 712.955 908.858 769.125 966.281 741.045Z" stroke="url(#paint22_linear_912_72)" stroke-opacity="0.2" stroke-width="4"/>
<path opacity="0.347826" d="M934.861 736.245L1341.77 563.805C1388.13 544.158 1399.88 483.833 1364.27 448.228L1129.8 213.751C1094.19 178.146 1033.87 189.891 1014.22 236.253L841.782 643.169C816.883 701.925 876.103 761.145 934.861 736.245Z" stroke="url(#paint23_linear_912_72)" stroke-opacity="0.2" stroke-width="4"/>
<path opacity="0.362319" d="M904.148 731.075L1313.26 583.222C1360.67 566.091 1375.62 506.398 1341.89 468.941L1122.59 225.378C1088.86 187.921 1027.93 196.554 1005.94 241.907L816.131 633.325C788.338 690.635 844.243 752.725 904.148 731.075Z" stroke="url(#paint24_linear_912_72)" stroke-opacity="0.2" stroke-width="4"/>
<path opacity="0.376812" d="M874.169 725.585L1284.04 602.054C1332.35 587.494 1350.49 528.604 1318.73 489.392L1114.91 237.689C1083.16 198.478 1021.78 203.97 997.501 248.197L791.446 623.432C760.843 679.165 813.293 743.935 874.169 725.585Z" stroke="url(#paint25_linear_912_72)" stroke-opacity="0.2" stroke-width="4"/>
<path opacity="0.391304" d="M844.924 719.815L1254.16 620.263C1303.24 608.324 1324.51 550.404 1294.82 509.542L1106.72 250.65C1077.03 209.788 1015.38 212.117 988.861 255.104L767.716 613.547C734.395 667.556 783.262 734.815 844.924 719.815Z" stroke="url(#paint26_linear_912_72)" stroke-opacity="0.2" stroke-width="4"/>
<path opacity="0.405797" d="M816.419 713.805L1223.65 637.814C1273.36 628.539 1297.71 571.756 1270.17 529.35L1098 264.226C1070.46 221.821 1008.68 220.974 979.991 262.609L744.931 603.726C708.991 655.881 754.155 725.425 816.419 713.805Z" stroke="url(#paint27_linear_912_72)" stroke-opacity="0.2" stroke-width="4"/>
<path opacity="0.42029" d="M788.653 707.605L1192.56 654.677C1242.75 648.1 1270.13 592.616 1244.83 548.779L1088.71 278.38C1063.4 234.544 1001.66 230.515 970.871 270.692L723.073 594.023C684.621 644.197 725.975 715.825 788.653 707.605Z" stroke="url(#paint28_linear_912_72)" stroke-opacity="0.2" stroke-width="4"/>
<path opacity="0.434783" d="M761.626 701.265L1160.94 670.825C1211.47 666.97 1241.81 612.945 1218.81 567.794L1078.83 293.075C1055.82 247.923 994.281 240.716 961.471 279.33L702.127 584.491C661.273 632.562 698.722 706.055 761.626 701.265Z" stroke="url(#paint29_linear_912_72)" stroke-opacity="0.2" stroke-width="4"/>
<path opacity="0.449275" d="M735.334 694.815L1128.83 686.225C1179.55 685.115 1212.78 632.707 1192.15 586.36L1068.33 308.27C1047.7 261.923 986.521 251.548 951.761 288.5L682.071 575.18C638.934 621.035 672.393 696.185 735.334 694.815Z" stroke="url(#paint30_linear_912_72)" stroke-opacity="0.2" stroke-width="4"/>
<path opacity="0.463768" d="M709.771 688.295L1096.29 700.855C1147.05 702.505 1183.08 651.867 1164.88 604.448L1057.2 323.926C1038.99 276.507 978.341 262.983 941.721 298.178L662.88 566.141C617.582 609.673 646.98 686.255 709.771 688.295Z" stroke="url(#paint31_linear_912_72)" stroke-opacity="0.2" stroke-width="4"/>
<path opacity="0.478261" d="M684.928 681.755L1063.36 714.705C1114.02 719.115 1152.75 670.392 1137.04 622.028L1045.4 340.002C1029.69 291.638 969.711 274.992 931.321 308.337L644.528 557.422C597.199 598.529 622.476 676.325 684.928 681.755Z" stroke="url(#paint32_linear_912_72)" stroke-opacity="0.2" stroke-width="4"/>
<path opacity="0.492754" d="M660.795 675.235L1030.09 727.745C1080.5 734.905 1121.84 688.255 1108.66 639.073L1032.93 356.455C1019.76 307.275 960.621 287.542 920.551 318.953L626.987 549.068C577.759 587.656 598.868 666.436 660.795 675.235Z" stroke="url(#paint33_linear_912_72)" stroke-opacity="0.2" stroke-width="4"/>
<path opacity="0.507246" d="M637.358 668.777L996.531 739.965C1046.54 749.875 1090.38 705.425 1079.79 655.56L1019.78 373.244C1009.18 323.38 951.041 300.603 909.392 329.997L610.224 541.122C559.234 577.106 576.141 656.643 637.358 668.777Z" stroke="url(#paint34_linear_912_72)" stroke-opacity="0.2" stroke-width="4"/>
<path opacity="0.521739" d="M614.603 662.407L962.751 751.365C1012.2 763.995 1058.43 721.885 1050.45 671.465L1005.92 390.326C997.941 339.911 940.951 314.141 897.822 341.441L594.206 533.625C541.596 566.926 554.278 646.993 614.603 662.407Z" stroke="url(#paint35_linear_912_72)" stroke-opacity="0.2" stroke-width="4"/>
<path opacity="0.536232" d="M592.513 656.166L928.781 761.925C977.531 777.255 1026.03 737.605 1020.69 686.775L991.351 407.657C986.011 356.827 930.331 328.122 885.827 353.258L578.897 526.616C524.812 557.164 533.259 637.531 592.513 656.166Z" stroke="url(#paint36_linear_912_72)" stroke-opacity="0.2" stroke-width="4"/>
<path opacity="0.550725" d="M571.069 650.089L894.684 771.645C942.591 789.635 993.231 752.565 990.551 701.455L976.071 425.194C973.391 374.086 919.161 342.513 873.394 365.418L564.258 520.13C508.846 547.862 513.061 628.301 571.069 650.089Z" stroke="url(#paint37_linear_912_72)" stroke-opacity="0.2" stroke-width="4"/>
<path opacity="0.565217" d="M550.25 644.208L860.513 780.515C907.433 801.135 960.071 766.765 960.071 715.515V442.895C960.071 391.646 907.433 357.278 860.513 377.891L550.25 514.201C493.662 539.063 493.662 619.346 550.25 644.208Z" stroke="url(#paint38_linear_912_72)" stroke-opacity="0.2" stroke-width="4"/>
<path opacity="0.57971" d="M530.036 638.554L826.318 788.555C872.105 811.735 926.601 780.175 929.291 728.925L943.351 460.715C946.031 409.464 895.131 372.381 847.172 390.649L536.833 508.86C479.22 530.805 475.033 610.707 530.036 638.554Z" stroke="url(#paint39_linear_912_72)" stroke-opacity="0.2" stroke-width="4"/>
<path opacity="0.594203" d="M510.402 633.156L792.152 795.765C836.666 821.455 892.881 792.805 898.253 741.685L925.901 478.612C931.271 427.499 882.246 387.788 833.364 403.662L523.963 504.134C465.48 523.125 457.146 602.421 510.402 633.156Z" stroke="url(#paint40_linear_912_72)" stroke-opacity="0.2" stroke-width="4"/>
<path opacity="0.608696" d="M491.323 628.043L758.066 802.145C801.168 830.275 858.947 804.625 866.998 753.795L907.742 496.544C915.794 445.707 868.768 403.463 819.083 416.899L511.596 500.048C452.399 516.055 439.971 594.526 491.323 628.043Z" stroke="url(#paint41_linear_912_72)" stroke-opacity="0.2" stroke-width="4"/>
<path opacity="0.623188" d="M472.775 623.238L724.111 807.705C765.667 838.205 824.852 815.655 835.569 765.225L888.87 514.469C899.587 464.048 854.694 419.37 804.324 430.331L499.687 496.623C439.933 509.627 423.475 587.054 472.775 623.238Z" stroke="url(#paint42_linear_912_72)" stroke-opacity="0.2" stroke-width="4"/>
<path opacity="0.637681" d="M454.729 618.765L690.335 812.475C730.215 845.255 790.644 825.875 804.007 776.005L869.295 532.346C882.657 482.477 840.017 435.473 789.086 443.928L488.192 493.879C428.036 503.866 407.626 580.039 454.729 618.765Z" stroke="url(#paint43_linear_912_72)" stroke-opacity="0.2" stroke-width="4"/>
<path opacity="0.652174" d="M437.158 614.646L656.789 816.455C694.865 851.445 756.373 835.295 772.352 786.115L849.027 550.134C865.006 500.955 824.737 451.737 773.368 457.661L477.063 491.832C416.663 498.798 392.388 573.508 437.158 614.646Z" stroke="url(#paint44_linear_912_72)" stroke-opacity="0.2" stroke-width="4"/>
<path opacity="0.666667" d="M420.033 610.9L623.517 819.675C659.668 856.765 722.085 843.915 740.646 795.565L828.079 567.795C846.64 519.441 808.853 468.127 757.169 471.502L466.252 490.495C405.764 494.444 377.724 567.491 420.033 610.9Z" stroke="url(#paint45_linear_912_72)" stroke-opacity="0.2" stroke-width="4"/>
<path opacity="0.681159" d="M403.326 607.545L590.568 822.155C624.675 861.255 687.828 851.755 708.93 804.355L806.466 585.29C827.568 537.895 792.367 484.609 740.493 485.42L455.715 489.877C395.293 490.822 363.598 562.01 403.326 607.545Z" stroke="url(#paint46_linear_912_72)" stroke-opacity="0.2" stroke-width="4"/>
<path opacity="0.695652" d="M387.006 604.595L557.984 823.925C589.935 864.915 653.648 858.815 677.242 812.505L784.205 602.582C807.799 556.277 775.284 501.146 723.345 499.389L445.403 489.985C385.2 487.948 349.971 557.088 387.006 604.595Z" stroke="url(#paint47_linear_912_72)" stroke-opacity="0.2" stroke-width="4"/>
<path opacity="0.710145" d="M371.042 602.065L525.808 825.015C555.496 867.775 619.59 865.115 645.62 820.025L761.315 619.635C787.345 574.549 757.609 517.708 705.728 513.381L435.268 490.823C375.436 485.833 336.804 552.744 371.042 602.065Z" stroke="url(#paint48_linear_912_72)" stroke-opacity="0.2" stroke-width="4"/>
<path opacity="0.724638" d="M355.405 599.965L494.081 825.445C521.403 869.865 585.698 870.655 614.104 826.915L737.816 636.416C766.222 592.675 739.35 534.26 687.652 527.369L425.264 492.393C365.951 484.486 324.058 548.996 355.405 599.965Z" stroke="url(#paint49_linear_912_72)" stroke-opacity="0.2" stroke-width="4"/>
<path opacity="0.73913" d="M340.065 598.306L462.84 825.255C487.703 871.215 552.015 875.475 582.728 833.205L713.732 652.891C744.445 610.618 720.515 550.771 669.124 541.327L415.345 494.691C356.698 483.914 311.692 545.859 340.065 598.306Z" stroke="url(#paint50_linear_912_72)" stroke-opacity="0.2" stroke-width="4"/>
<path opacity="0.753623" d="M324.99 597.092L432.123 824.475C454.436 871.835 518.583 879.585 551.529 838.895L689.086 669.029C722.032 628.344 701.117 567.21 650.154 555.231L405.465 497.715C347.625 484.119 299.666 543.343 324.99 597.092Z" stroke="url(#paint51_linear_912_72)" stroke-opacity="0.2" stroke-width="4"/>
<path opacity="0.768116" d="M310.151 596.331L401.963 823.155C421.645 871.775 485.441 883.005 520.54 844.025L663.904 684.795C699.003 645.818 681.168 583.546 630.755 569.055L395.578 501.454C338.685 485.101 287.94 541.459 310.151 596.331Z" stroke="url(#paint52_linear_912_72)" stroke-opacity="0.2" stroke-width="4"/>
<path opacity="0.782609" d="M295.517 596.025L372.393 821.325C389.366 871.065 452.627 885.765 489.793 848.595L638.213 700.175C675.379 663.011 660.682 599.75 610.937 582.776L385.641 505.901C329.83 486.856 276.473 540.213 295.517 596.025Z" stroke="url(#paint53_linear_912_72)" stroke-opacity="0.2" stroke-width="4"/>
<path opacity="0.797101" d="M281.059 596.176L343.44 819.025C357.638 869.745 420.179 887.885 459.32 852.645L612.043 715.135C651.185 679.895 639.674 615.795 590.716 596.373L375.612 511.04C321.011 489.38 265.225 539.611 281.059 596.176Z" stroke="url(#paint54_linear_912_72)" stroke-opacity="0.2" stroke-width="4"/>
<path opacity="0.811594" d="M266.747 596.784L315.131 816.295C326.492 867.845 388.129 889.415 429.148 856.195L585.423 729.645C626.443 696.425 618.162 631.655 570.105 609.825L365.447 516.858C312.183 492.663 254.154 539.653 266.747 596.784Z" stroke="url(#paint55_linear_912_72)" stroke-opacity="0.2" stroke-width="4"/>
<path opacity="0.826087" d="M252.553 597.845L287.491 813.195C295.962 865.415 356.511 890.355 399.307 859.265L558.384 743.695C601.18 712.595 596.165 647.303 549.122 623.11L355.107 523.335C303.3 496.692 243.224 540.341 252.553 597.845Z" stroke="url(#paint56_linear_912_72)" stroke-opacity="0.2" stroke-width="4"/>
<path opacity="0.84058" d="M238.45 599.358L260.54 809.765C266.076 862.485 325.355 890.765 369.821 861.895L530.958 757.245C575.424 728.375 573.701 662.716 527.782 636.211L344.555 530.452C294.318 501.456 232.393 541.67 238.45 599.358Z" stroke="url(#paint57_linear_912_72)" stroke-opacity="0.2" stroke-width="4"/>
<path opacity="0.855072" d="M224.41 601.315L234.296 806.035C236.859 859.115 294.69 890.675 340.713 864.105L503.178 770.305C549.202 743.725 550.791 677.875 506.103 649.109L333.751 538.186C285.194 506.935 221.624 543.637 224.41 601.315Z" stroke="url(#paint58_linear_912_72)" stroke-opacity="0.2" stroke-width="4"/>
<path opacity="0.869565" d="M210.407 603.711L208.775 802.075C208.337 855.345 264.54 890.105 312.006 865.925L475.079 782.835C522.544 758.645 527.458 692.745 484.104 661.789L322.663 546.513C275.887 513.112 210.88 546.235 210.407 603.711Z" stroke="url(#paint59_linear_912_72)" stroke-opacity="0.2" stroke-width="4"/>
<path opacity="0.884058" d="M196.417 606.536L183.989 797.925C180.528 851.215 234.93 889.105 283.718 867.385L446.693 794.825C495.481 773.105 503.724 707.325 461.804 674.235L311.257 555.406C266.357 519.965 200.124 549.454 196.417 606.536Z" stroke="url(#paint60_linear_912_72)" stroke-opacity="0.2" stroke-width="4"/>
<path opacity="0.898551" d="M182.416 609.781L159.946 793.635C153.451 846.785 205.88 887.725 255.866 868.535L418.056 806.275C468.042 787.085 479.611 721.585 439.222 686.435L299.502 564.836C256.566 527.47 189.32 553.284 182.416 609.781Z" stroke="url(#paint61_linear_912_72)" stroke-opacity="0.2" stroke-width="4"/>
<path opacity="0.913043" d="M168.379 613.435L136.654 789.255C127.121 842.085 177.409 885.975 228.466 869.385L389.202 817.165C440.259 800.575 455.145 735.505 416.379 698.365L287.368 574.774C246.479 535.601 178.434 557.71 168.379 613.435Z" stroke="url(#paint62_linear_912_72)" stroke-opacity="0.2" stroke-width="4"/>
<path opacity="0.927536" d="M154.288 617.486L114.116 784.835C101.551 837.185 149.533 883.925 201.531 869.995L360.169 827.485C412.167 813.555 430.35 749.085 393.296 710.035L274.83 585.187C236.061 544.331 167.435 562.719 154.288 617.486Z" stroke="url(#paint63_linear_912_72)" stroke-opacity="0.2" stroke-width="4"/>
<path opacity="0.942029" d="M140.12 621.921L92.3311 780.435C76.7481 832.115 122.265 881.605 175.07 870.375L330.991 837.235C383.796 826.015 405.252 762.295 369.994 721.415L261.863 596.044C225.281 553.63 156.288 568.294 140.12 621.921Z" stroke="url(#paint64_linear_912_72)" stroke-opacity="0.2" stroke-width="4"/>
<path opacity="0.956522" d="M125.858 626.726L71.296 776.095C52.718 826.945 95.616 879.045 149.092 870.575L301.702 846.405C355.179 837.935 379.877 775.135 346.493 732.505L248.445 607.31C214.109 563.466 144.965 574.418 125.858 626.726Z" stroke="url(#paint65_linear_912_72)" stroke-opacity="0.2" stroke-width="4"/>
<path opacity="0.971014" d="M111.483 631.885L51.0051 771.865C29.4661 821.715 69.5941 876.315 123.604 870.635L272.34 855.005C326.35 849.325 354.251 787.585 322.817 743.295L234.558 618.949C202.518 573.808 133.438 581.069 111.483 631.885Z" stroke="url(#paint66_linear_912_72)" stroke-opacity="0.2" stroke-width="4"/>
<path opacity="0.985507" d="M96.98 637.383L31.451 767.805C6.99174 816.485 44.205 873.435 98.608 870.585L242.94 863.015C297.344 860.165 328.4 799.635 298.987 753.785L220.184 630.927C190.483 584.622 121.678 588.228 96.98 637.383Z" stroke="url(#paint67_linear_912_72)" stroke-opacity="0.2" stroke-width="4"/>
<path d="M82.333 643.205L12.6181 763.955C-14.7098 811.285 19.45 870.455 74.106 870.455H213.536C268.192 870.455 302.352 811.285 275.024 763.955L205.309 643.205C177.981 595.871 109.661 595.871 82.333 643.205Z" stroke="url(#paint68_linear_912_72)" stroke-opacity="0.2" stroke-width="4"/>
<defs>
<linearGradient id="paint0_linear_912_72" x1="1802.24" y1="868.725" x2="1324.12" y2="-205.133" gradientUnits="userSpaceOnUse">
<stop stop-color="#FF1CF7"/>
<stop offset="1" stop-color="#00B0FF" stop-opacity="0.1"/>
</linearGradient>
<linearGradient id="paint1_linear_912_72" x1="1752.04" y1="881.415" x2="1334.5" y2="-206.316" gradientUnits="userSpaceOnUse">
<stop stop-color="#FF1CF7"/>
<stop offset="1" stop-color="#00B0FF" stop-opacity="0.1"/>
</linearGradient>
<linearGradient id="paint2_linear_912_72" x1="1701.79" y1="892.465" x2="1344.95" y2="-205.753" gradientUnits="userSpaceOnUse">
<stop stop-color="#FF1CF7"/>
<stop offset="1" stop-color="#00B0FF" stop-opacity="0.1"/>
</linearGradient>
<linearGradient id="paint3_linear_912_72" x1="1651.56" y1="901.915" x2="1355.38" y2="-203.456" gradientUnits="userSpaceOnUse">
<stop stop-color="#FF1CF7"/>
<stop offset="1" stop-color="#00B0FF" stop-opacity="0.1"/>
</linearGradient>
<linearGradient id="paint4_linear_912_72" x1="1601.44" y1="909.765" x2="1365.67" y2="-199.445" gradientUnits="userSpaceOnUse">
<stop stop-color="#FF1CF7"/>
<stop offset="1" stop-color="#00B0FF" stop-opacity="0.1"/>
</linearGradient>
<linearGradient id="paint5_linear_912_72" x1="1551.53" y1="916.035" x2="1375.76" y2="-193.741" gradientUnits="userSpaceOnUse">
<stop stop-color="#FF1CF7"/>
<stop offset="1" stop-color="#00B0FF" stop-opacity="0.1"/>
</linearGradient>
<linearGradient id="paint6_linear_912_72" x1="1501.9" y1="920.765" x2="1385.53" y2="-186.373" gradientUnits="userSpaceOnUse">
<stop stop-color="#FF1CF7"/>
<stop offset="1" stop-color="#00B0FF" stop-opacity="0.1"/>
</linearGradient>
<linearGradient id="paint7_linear_912_72" x1="1452.64" y1="923.975" x2="1394.92" y2="-177.375" gradientUnits="userSpaceOnUse">
<stop stop-color="#FF1CF7"/>
<stop offset="1" stop-color="#00B0FF" stop-opacity="0.1"/>
</linearGradient>
<linearGradient id="paint8_linear_912_72" x1="1403.82" y1="925.705" x2="1403.82" y2="-166.783" gradientUnits="userSpaceOnUse">
<stop stop-color="#FF1CF7"/>
<stop offset="1" stop-color="#00B0FF" stop-opacity="0.1"/>
</linearGradient>
<linearGradient id="paint9_linear_912_72" x1="1355.53" y1="925.995" x2="1412.16" y2="-154.639" gradientUnits="userSpaceOnUse">
<stop stop-color="#FF1CF7"/>
<stop offset="1" stop-color="#00B0FF" stop-opacity="0.1"/>
</linearGradient>
<linearGradient id="paint10_linear_912_72" x1="1307.83" y1="924.875" x2="1419.86" y2="-140.991" gradientUnits="userSpaceOnUse">
<stop stop-color="#FF1CF7"/>
<stop offset="1" stop-color="#00B0FF" stop-opacity="0.1"/>
</linearGradient>
<linearGradient id="paint11_linear_912_72" x1="1260.8" y1="922.405" x2="1426.84" y2="-125.888" gradientUnits="userSpaceOnUse">
<stop stop-color="#FF1CF7"/>
<stop offset="1" stop-color="#00B0FF" stop-opacity="0.1"/>
</linearGradient>
<linearGradient id="paint12_linear_912_72" x1="1214.51" y1="918.635" x2="1433.03" y2="-109.384" gradientUnits="userSpaceOnUse">
<stop stop-color="#FF1CF7"/>
<stop offset="1" stop-color="#00B0FF" stop-opacity="0.1"/>
</linearGradient>
<linearGradient id="paint13_linear_912_72" x1="1169.02" y1="913.615" x2="1438.35" y2="-91.5381" gradientUnits="userSpaceOnUse">
<stop stop-color="#FF1CF7"/>
<stop offset="1" stop-color="#00B0FF" stop-opacity="0.1"/>
</linearGradient>
<linearGradient id="paint14_linear_912_72" x1="1124.39" y1="907.405" x2="1442.75" y2="-72.4102" gradientUnits="userSpaceOnUse">
<stop stop-color="#FF1CF7"/>
<stop offset="1" stop-color="#00B0FF" stop-opacity="0.1"/>
</linearGradient>
<linearGradient id="paint15_linear_912_72" x1="1080.68" y1="900.055" x2="1446.17" y2="-52.064" gradientUnits="userSpaceOnUse">
<stop stop-color="#FF1CF7"/>
<stop offset="1" stop-color="#00B0FF" stop-opacity="0.1"/>
</linearGradient>
<linearGradient id="paint16_linear_912_72" x1="1037.94" y1="891.645" x2="1448.54" y2="-30.568" gradientUnits="userSpaceOnUse">
<stop stop-color="#FF1CF7"/>
<stop offset="1" stop-color="#00B0FF" stop-opacity="0.1"/>
</linearGradient>
<linearGradient id="paint17_linear_912_72" x1="996.221" y1="882.225" x2="1449.81" y2="-7.99122" gradientUnits="userSpaceOnUse">
<stop stop-color="#FF1CF7"/>
<stop offset="1" stop-color="#00B0FF" stop-opacity="0.1"/>
</linearGradient>
<linearGradient id="paint18_linear_912_72" x1="955.571" y1="871.865" x2="1449.94" y2="15.5939" gradientUnits="userSpaceOnUse">
<stop stop-color="#FF1CF7"/>
<stop offset="1" stop-color="#00B0FF" stop-opacity="0.1"/>
</linearGradient>
<linearGradient id="paint19_linear_912_72" x1="916.023" y1="860.635" x2="1448.88" y2="40.1139" gradientUnits="userSpaceOnUse">
<stop stop-color="#FF1CF7"/>
<stop offset="1" stop-color="#00B0FF" stop-opacity="0.1"/>
</linearGradient>
<linearGradient id="paint20_linear_912_72" x1="877.62" y1="848.615" x2="1446.59" y2="65.4928" gradientUnits="userSpaceOnUse">
<stop stop-color="#FF1CF7"/>
<stop offset="1" stop-color="#00B0FF" stop-opacity="0.1"/>
</linearGradient>
<linearGradient id="paint21_linear_912_72" x1="840.389" y1="835.855" x2="1443.03" y2="91.6529" gradientUnits="userSpaceOnUse">
<stop stop-color="#FF1CF7"/>
<stop offset="1" stop-color="#00B0FF" stop-opacity="0.1"/>
</linearGradient>
<linearGradient id="paint22_linear_912_72" x1="804.363" y1="822.455" x2="1438.19" y2="118.516" gradientUnits="userSpaceOnUse">
<stop stop-color="#FF1CF7"/>
<stop offset="1" stop-color="#00B0FF" stop-opacity="0.1"/>
</linearGradient>
<linearGradient id="paint23_linear_912_72" x1="769.563" y1="808.465" x2="1432.02" y2="146.002" gradientUnits="userSpaceOnUse">
<stop stop-color="#FF1CF7"/>
<stop offset="1" stop-color="#00B0FF" stop-opacity="0.1"/>
</linearGradient>
<linearGradient id="paint24_linear_912_72" x1="736.007" y1="793.975" x2="1424.52" y2="174.03" gradientUnits="userSpaceOnUse">
<stop stop-color="#FF1CF7"/>
<stop offset="1" stop-color="#00B0FF" stop-opacity="0.1"/>
</linearGradient>
<linearGradient id="paint25_linear_912_72" x1="703.711" y1="779.045" x2="1415.66" y2="202.521" gradientUnits="userSpaceOnUse">
<stop stop-color="#FF1CF7"/>
<stop offset="1" stop-color="#00B0FF" stop-opacity="0.1"/>
</linearGradient>
<linearGradient id="paint26_linear_912_72" x1="672.685" y1="763.775" x2="1405.44" y2="231.394" gradientUnits="userSpaceOnUse">
<stop stop-color="#FF1CF7"/>
<stop offset="1" stop-color="#00B0FF" stop-opacity="0.1"/>
</linearGradient>
<linearGradient id="paint27_linear_912_72" x1="642.935" y1="748.215" x2="1393.85" y2="260.567" gradientUnits="userSpaceOnUse">
<stop stop-color="#FF1CF7"/>
<stop offset="1" stop-color="#00B0FF" stop-opacity="0.1"/>
</linearGradient>
<linearGradient id="paint28_linear_912_72" x1="614.461" y1="732.455" x2="1380.88" y2="289.961" gradientUnits="userSpaceOnUse">
<stop stop-color="#FF1CF7"/>
<stop offset="1" stop-color="#00B0FF" stop-opacity="0.1"/>
</linearGradient>
<linearGradient id="paint29_linear_912_72" x1="587.262" y1="716.565" x2="1366.55" y2="319.496" gradientUnits="userSpaceOnUse">
<stop stop-color="#FF1CF7"/>
<stop offset="1" stop-color="#00B0FF" stop-opacity="0.1"/>
</linearGradient>
<linearGradient id="paint30_linear_912_72" x1="561.33" y1="700.615" x2="1350.85" y2="349.094" gradientUnits="userSpaceOnUse">
<stop stop-color="#FF1CF7"/>
<stop offset="1" stop-color="#00B0FF" stop-opacity="0.1"/>
</linearGradient>
<linearGradient id="paint31_linear_912_72" x1="536.653" y1="684.675" x2="1333.8" y2="378.676" gradientUnits="userSpaceOnUse">
<stop stop-color="#FF1CF7"/>
<stop offset="1" stop-color="#00B0FF" stop-opacity="0.1"/>
</linearGradient>
<linearGradient id="paint32_linear_912_72" x1="513.216" y1="668.82" x2="1315.42" y2="408.168" gradientUnits="userSpaceOnUse">
<stop stop-color="#FF1CF7"/>
<stop offset="1" stop-color="#00B0FF" stop-opacity="0.1"/>
</linearGradient>
<linearGradient id="paint33_linear_912_72" x1="491.002" y1="653.121" x2="1295.73" y2="437.495" gradientUnits="userSpaceOnUse">
<stop stop-color="#FF1CF7"/>
<stop offset="1" stop-color="#00B0FF" stop-opacity="0.1"/>
</linearGradient>
<linearGradient id="paint34_linear_912_72" x1="469.986" y1="637.642" x2="1274.74" y2="466.585" gradientUnits="userSpaceOnUse">
<stop stop-color="#FF1CF7"/>
<stop offset="1" stop-color="#00B0FF" stop-opacity="0.1"/>
</linearGradient>
<linearGradient id="paint35_linear_912_72" x1="450.141" y1="622.449" x2="1252.5" y2="495.367" gradientUnits="userSpaceOnUse">
<stop stop-color="#FF1CF7"/>
<stop offset="1" stop-color="#00B0FF" stop-opacity="0.1"/>
</linearGradient>
<linearGradient id="paint36_linear_912_72" x1="431.438" y1="607.605" x2="1229.03" y2="523.775" gradientUnits="userSpaceOnUse">
<stop stop-color="#FF1CF7"/>
<stop offset="1" stop-color="#00B0FF" stop-opacity="0.1"/>
</linearGradient>
<linearGradient id="paint37_linear_912_72" x1="413.844" y1="593.171" x2="1204.37" y2="551.741" gradientUnits="userSpaceOnUse">
<stop stop-color="#FF1CF7"/>
<stop offset="1" stop-color="#00B0FF" stop-opacity="0.1"/>
</linearGradient>
<linearGradient id="paint38_linear_912_72" x1="397.321" y1="579.205" x2="1178.56" y2="579.205" gradientUnits="userSpaceOnUse">
<stop stop-color="#FF1CF7"/>
<stop offset="1" stop-color="#00B0FF" stop-opacity="0.1"/>
</linearGradient>
<linearGradient id="paint39_linear_912_72" x1="381.83" y1="565.762" x2="1151.64" y2="606.106" gradientUnits="userSpaceOnUse">
<stop stop-color="#FF1CF7"/>
<stop offset="1" stop-color="#00B0FF" stop-opacity="0.1"/>
</linearGradient>
<linearGradient id="paint40_linear_912_72" x1="367.329" y1="552.895" x2="1123.65" y2="632.388" gradientUnits="userSpaceOnUse">
<stop stop-color="#FF1CF7"/>
<stop offset="1" stop-color="#00B0FF" stop-opacity="0.1"/>
</linearGradient>
<linearGradient id="paint41_linear_912_72" x1="353.772" y1="540.654" x2="1094.65" y2="657.997" gradientUnits="userSpaceOnUse">
<stop stop-color="#FF1CF7"/>
<stop offset="1" stop-color="#00B0FF" stop-opacity="0.1"/>
</linearGradient>
<linearGradient id="paint42_linear_912_72" x1="341.111" y1="529.084" x2="1064.68" y2="682.885" gradientUnits="userSpaceOnUse">
<stop stop-color="#FF1CF7"/>
<stop offset="1" stop-color="#00B0FF" stop-opacity="0.1"/>
</linearGradient>
<linearGradient id="paint43_linear_912_72" x1="329.298" y1="518.23" x2="1033.81" y2="707.005" gradientUnits="userSpaceOnUse">
<stop stop-color="#FF1CF7"/>
<stop offset="1" stop-color="#00B0FF" stop-opacity="0.1"/>
</linearGradient>
<linearGradient id="paint44_linear_912_72" x1="318.28" y1="508.13" x2="1002.08" y2="730.305" gradientUnits="userSpaceOnUse">
<stop stop-color="#FF1CF7"/>
<stop offset="1" stop-color="#00B0FF" stop-opacity="0.1"/>
</linearGradient>
<linearGradient id="paint45_linear_912_72" x1="308.003" y1="498.822" x2="969.551" y2="752.765" gradientUnits="userSpaceOnUse">
<stop stop-color="#FF1CF7"/>
<stop offset="1" stop-color="#00B0FF" stop-opacity="0.1"/>
</linearGradient>
<linearGradient id="paint46_linear_912_72" x1="298.413" y1="490.338" x2="936.281" y2="774.335" gradientUnits="userSpaceOnUse">
<stop stop-color="#FF1CF7"/>
<stop offset="1" stop-color="#00B0FF" stop-opacity="0.1"/>
</linearGradient>
<linearGradient id="paint47_linear_912_72" x1="289.452" y1="482.707" x2="902.342" y2="794.985" gradientUnits="userSpaceOnUse">
<stop stop-color="#FF1CF7"/>
<stop offset="1" stop-color="#00B0FF" stop-opacity="0.1"/>
</linearGradient>
<linearGradient id="paint48_linear_912_72" x1="281.064" y1="475.955" x2="867.785" y2="814.695" gradientUnits="userSpaceOnUse">
<stop stop-color="#FF1CF7"/>
<stop offset="1" stop-color="#00B0FF" stop-opacity="0.1"/>
</linearGradient>
<linearGradient id="paint49_linear_912_72" x1="273.188" y1="470.103" x2="832.676" y2="833.435" gradientUnits="userSpaceOnUse">
<stop stop-color="#FF1CF7"/>
<stop offset="1" stop-color="#00B0FF" stop-opacity="0.1"/>
</linearGradient>
<linearGradient id="paint50_linear_912_72" x1="265.767" y1="465.171" x2="797.079" y2="851.195" gradientUnits="userSpaceOnUse">
<stop stop-color="#FF1CF7"/>
<stop offset="1" stop-color="#00B0FF" stop-opacity="0.1"/>
</linearGradient>
<linearGradient id="paint51_linear_912_72" x1="258.74" y1="461.171" x2="761.058" y2="867.945" gradientUnits="userSpaceOnUse">
<stop stop-color="#FF1CF7"/>
<stop offset="1" stop-color="#00B0FF" stop-opacity="0.1"/>
</linearGradient>
<linearGradient id="paint52_linear_912_72" x1="252.047" y1="458.116" x2="724.678" y2="883.675" gradientUnits="userSpaceOnUse">
<stop stop-color="#FF1CF7"/>
<stop offset="1" stop-color="#00B0FF" stop-opacity="0.1"/>
</linearGradient>
<linearGradient id="paint53_linear_912_72" x1="245.628" y1="456.012" x2="688.003" y2="898.385" gradientUnits="userSpaceOnUse">
<stop stop-color="#FF1CF7"/>
<stop offset="1" stop-color="#00B0FF" stop-opacity="0.1"/>
</linearGradient>
<linearGradient id="paint54_linear_912_72" x1="239.424" y1="454.862" x2="651.098" y2="912.075" gradientUnits="userSpaceOnUse">
<stop stop-color="#FF1CF7"/>
<stop offset="1" stop-color="#00B0FF" stop-opacity="0.1"/>
</linearGradient>
<linearGradient id="paint55_linear_912_72" x1="233.374" y1="454.667" x2="614.026" y2="924.735" gradientUnits="userSpaceOnUse">
<stop stop-color="#FF1CF7"/>
<stop offset="1" stop-color="#00B0FF" stop-opacity="0.1"/>
</linearGradient>
<linearGradient id="paint56_linear_912_72" x1="227.421" y1="455.421" x2="576.852" y2="936.375" gradientUnits="userSpaceOnUse">
<stop stop-color="#FF1CF7"/>
<stop offset="1" stop-color="#00B0FF" stop-opacity="0.1"/>
</linearGradient>
<linearGradient id="paint57_linear_912_72" x1="221.505" y1="457.119" x2="539.636" y2="946.995" gradientUnits="userSpaceOnUse">
<stop stop-color="#FF1CF7"/>
<stop offset="1" stop-color="#00B0FF" stop-opacity="0.1"/>
</linearGradient>
<linearGradient id="paint58_linear_912_72" x1="215.571" y1="459.749" x2="502.44" y2="956.615" gradientUnits="userSpaceOnUse">
<stop stop-color="#FF1CF7"/>
<stop offset="1" stop-color="#00B0FF" stop-opacity="0.1"/>
</linearGradient>
<linearGradient id="paint59_linear_912_72" x1="209.563" y1="463.296" x2="465.324" y2="965.255" gradientUnits="userSpaceOnUse">
<stop stop-color="#FF1CF7"/>
<stop offset="1" stop-color="#00B0FF" stop-opacity="0.1"/>
</linearGradient>
<linearGradient id="paint60_linear_912_72" x1="203.426" y1="467.745" x2="428.346" y2="972.925" gradientUnits="userSpaceOnUse">
<stop stop-color="#FF1CF7"/>
<stop offset="1" stop-color="#00B0FF" stop-opacity="0.1"/>
</linearGradient>
<linearGradient id="paint61_linear_912_72" x1="197.108" y1="473.074" x2="391.563" y2="979.645" gradientUnits="userSpaceOnUse">
<stop stop-color="#FF1CF7"/>
<stop offset="1" stop-color="#00B0FF" stop-opacity="0.1"/>
</linearGradient>
<linearGradient id="paint62_linear_912_72" x1="190.558" y1="479.259" x2="355.028" y2="985.445" gradientUnits="userSpaceOnUse">
<stop stop-color="#FF1CF7"/>
<stop offset="1" stop-color="#00B0FF" stop-opacity="0.1"/>
</linearGradient>
<linearGradient id="paint63_linear_912_72" x1="183.728" y1="486.274" x2="318.796" y2="990.355" gradientUnits="userSpaceOnUse">
<stop stop-color="#FF1CF7"/>
<stop offset="1" stop-color="#00B0FF" stop-opacity="0.1"/>
</linearGradient>
<linearGradient id="paint64_linear_912_72" x1="176.571" y1="494.091" x2="282.915" y2="994.405" gradientUnits="userSpaceOnUse">
<stop stop-color="#FF1CF7"/>
<stop offset="1" stop-color="#00B0FF" stop-opacity="0.1"/>
</linearGradient>
<linearGradient id="paint65_linear_912_72" x1="169.042" y1="502.678" x2="247.433" y2="997.625" gradientUnits="userSpaceOnUse">
<stop stop-color="#FF1CF7"/>
<stop offset="1" stop-color="#00B0FF" stop-opacity="0.1"/>
</linearGradient>
<linearGradient id="paint66_linear_912_72" x1="161.1" y1="512" x2="212.396" y2="1000.04" gradientUnits="userSpaceOnUse">
<stop stop-color="#FF1CF7"/>
<stop offset="1" stop-color="#00B0FF" stop-opacity="0.1"/>
</linearGradient>
<linearGradient id="paint67_linear_912_72" x1="152.705" y1="522.022" x2="177.846" y2="1001.72" gradientUnits="userSpaceOnUse">
<stop stop-color="#FF1CF7"/>
<stop offset="1" stop-color="#00B0FF" stop-opacity="0.1"/>
</linearGradient>
<linearGradient id="paint68_linear_912_72" x1="143.821" y1="532.705" x2="143.821" y2="1002.69" gradientUnits="userSpaceOnUse">
<stop stop-color="#FF1CF7"/>
<stop offset="1" stop-color="#00B0FF" stop-opacity="0.1"/>
</linearGradient>
</defs>
</svg>
